<mxfile host="app.diagrams.net" agent="Mozilla/5.0 (Windows NT 10.0; Win64; x64) AppleWebKit/537.36 (KHTML, like Gecko) Chrome/136.0.0.0 Safari/537.36" version="26.2.14">
  <diagram name="Page-1" id="r1gqqM0i9GKPcq_8EENj">
    <mxGraphModel dx="802" dy="468" grid="1" gridSize="10" guides="1" tooltips="1" connect="1" arrows="1" fold="1" page="1" pageScale="1" pageWidth="850" pageHeight="1100" math="0" shadow="0">
      <root>
        <mxCell id="0" />
        <mxCell id="1" parent="0" />
        <mxCell id="-OMRtR1ukcJp4NZzfe01-1" value="Actor" style="shape=umlActor;verticalLabelPosition=bottom;verticalAlign=top;html=1;outlineConnect=0;" vertex="1" parent="1">
          <mxGeometry x="170" y="280" width="30" height="60" as="geometry" />
        </mxCell>
        <mxCell id="-OMRtR1ukcJp4NZzfe01-2" value="Actor" style="shape=umlActor;verticalLabelPosition=bottom;verticalAlign=top;html=1;outlineConnect=0;" vertex="1" parent="1">
          <mxGeometry x="170" y="390" width="30" height="60" as="geometry" />
        </mxCell>
        <mxCell id="-OMRtR1ukcJp4NZzfe01-3" value="Actor" style="shape=umlActor;verticalLabelPosition=bottom;verticalAlign=top;html=1;outlineConnect=0;" vertex="1" parent="1">
          <mxGeometry x="170" y="490" width="30" height="60" as="geometry" />
        </mxCell>
        <mxCell id="-OMRtR1ukcJp4NZzfe01-5" value="" style="rounded=0;whiteSpace=wrap;html=1;" vertex="1" parent="1">
          <mxGeometry x="230" y="180" width="280" height="430" as="geometry" />
        </mxCell>
        <mxCell id="-OMRtR1ukcJp4NZzfe01-6" value="" style="ellipse;whiteSpace=wrap;html=1;" vertex="1" parent="1">
          <mxGeometry x="310" y="190" width="120" height="50" as="geometry" />
        </mxCell>
        <mxCell id="-OMRtR1ukcJp4NZzfe01-7" value="" style="ellipse;whiteSpace=wrap;html=1;" vertex="1" parent="1">
          <mxGeometry x="310" y="250" width="120" height="50" as="geometry" />
        </mxCell>
        <mxCell id="-OMRtR1ukcJp4NZzfe01-8" value="" style="ellipse;whiteSpace=wrap;html=1;" vertex="1" parent="1">
          <mxGeometry x="310" y="370" width="120" height="50" as="geometry" />
        </mxCell>
        <mxCell id="-OMRtR1ukcJp4NZzfe01-11" value="" style="ellipse;whiteSpace=wrap;html=1;" vertex="1" parent="1">
          <mxGeometry x="310" y="310" width="120" height="50" as="geometry" />
        </mxCell>
        <mxCell id="-OMRtR1ukcJp4NZzfe01-12" value="" style="ellipse;whiteSpace=wrap;html=1;" vertex="1" parent="1">
          <mxGeometry x="310" y="430" width="120" height="50" as="geometry" />
        </mxCell>
        <mxCell id="-OMRtR1ukcJp4NZzfe01-13" value="" style="ellipse;whiteSpace=wrap;html=1;" vertex="1" parent="1">
          <mxGeometry x="310" y="550" width="120" height="50" as="geometry" />
        </mxCell>
        <mxCell id="-OMRtR1ukcJp4NZzfe01-14" value="" style="ellipse;whiteSpace=wrap;html=1;" vertex="1" parent="1">
          <mxGeometry x="310" y="490" width="120" height="50" as="geometry" />
        </mxCell>
      </root>
    </mxGraphModel>
  </diagram>
</mxfile>
